<svg width="123" height="135" viewBox="0 0 123 135" fill="none" xmlns="http://www.w3.org/2000/svg">
<g clip-path="url(#clip0_215_15)">
<path d="M60.7677 5.00102C55.6958 5.02458 50.8524 5.45714 46.5906 6.21125C34.036 8.42924 31.7566 13.0717 31.7566 21.6331V32.9402H61.4246V36.7092H31.7566H20.6224C12.0001 36.7092 4.4501 41.8917 2.08856 51.7507C-0.635446 63.0513 -0.756271 70.1031 2.08856 81.9028C4.19747 90.686 9.23383 96.9443 17.8562 96.9443H28.0567V83.3897C28.0567 73.5972 36.5294 64.9595 46.5906 64.9595H76.2241C84.473 64.9595 91.0581 58.1676 91.0581 49.8834V21.6331C91.0581 13.5929 84.2753 7.55313 76.2241 6.21125C71.1276 5.36287 65.8395 4.97745 60.7677 5.00102ZM44.7234 14.0951C47.7879 14.0951 50.2905 16.6385 50.2905 19.7659C50.2905 22.8822 47.7879 25.4021 44.7234 25.4021C41.6479 25.4021 39.1563 22.8822 39.1563 19.7659C39.1563 16.6385 41.6479 14.0951 44.7234 14.0951Z" fill="url(#paint0_linear_215_15)"/>
<path d="M94.758 36.7092V49.8834C94.758 60.0973 86.0986 68.6939 76.2241 68.6939H46.5906C38.4735 68.6939 31.7566 75.6411 31.7566 83.77V112.02C31.7566 120.061 38.7481 124.79 46.5906 127.096C55.9819 129.858 64.9876 130.357 76.2241 127.096C83.6931 124.934 91.0581 120.582 91.0581 112.02V100.713H61.4246V96.9443H91.0581H105.892C114.514 96.9443 117.728 90.93 120.726 81.9028C123.824 72.6094 123.692 63.6723 120.726 51.7507C118.595 43.167 114.525 36.7092 105.892 36.7092H94.758ZM78.0913 108.251C81.1668 108.251 83.6584 110.771 83.6584 113.888C83.6584 117.015 81.1668 119.558 78.0913 119.558C75.0268 119.558 72.5242 117.015 72.5242 113.888C72.5242 110.771 75.0268 108.251 78.0913 108.251Z" fill="url(#paint1_linear_215_15)"/>
</g>
<defs>
<linearGradient id="paint0_linear_215_15" x1="-3.69444e-07" y1="5" x2="68.4113" y2="63.2959" gradientUnits="userSpaceOnUse">
<stop stop-color="white"/>
<stop offset="1" stop-color="white"/>
</linearGradient>
<linearGradient id="paint1_linear_215_15" x1="77.3783" y1="112.937" x2="52.835" y2="78.5444" gradientUnits="userSpaceOnUse">
<stop stop-color="white"/>
<stop offset="1" stop-color="white"/>
</linearGradient>
<clipPath id="clip0_215_15">
<rect width="122.76" height="134.668" fill="white"/>
</clipPath>
</defs>
</svg>
